<svg width="38" height="37" viewBox="0 0 38 37" fill="none" xmlns="http://www.w3.org/2000/svg">
<g id="raphael:facebook">
<g clip-path="url(#clip0_295_1264)">
<rect x="0.324707" width="37" height="37" rx="5" fill="white"/>
<path id="Vector" d="M31.9089 -0.459473H5.17359C2.09944 -0.459473 -0.415771 2.05574 -0.415771 5.12989V31.868C-0.415771 34.9421 2.09944 37.4573 5.17359 37.4573H31.9117C34.9858 37.4573 37.501 34.9421 37.501 31.868V5.12989C37.4982 2.05574 34.9858 -0.459473 31.9089 -0.459473ZM31.5498 19.7782H27.0503V36.0572H20.318V19.7782H16.9504V14.1665H20.318V10.7989C20.318 6.22121 22.2183 3.49779 27.626 3.49779H32.1213V9.10811H29.3098C27.2082 9.10811 27.0685 9.89482 27.0685 11.3578L27.0503 14.1665H32.1436L31.5498 19.7782Z" fill="#0A66C2"/>
</g>
</g>
<defs>
<clipPath id="clip0_295_1264">
<rect x="0.324707" width="37" height="37" rx="5" fill="white"/>
</clipPath>
</defs>
</svg>
