<svg width="33" height="33" viewBox="0 0 33 33" fill="none" xmlns="http://www.w3.org/2000/svg">
<g id="fluent-emoji-high-contrast:man-getting-haircut" clip-path="url(#clip0_843_269)">
<g id="Group">
<path id="Vector" d="M11.643 12.856L11.632 12.864L11.637 12.86C11.5764 12.9066 11.5071 12.9407 11.4332 12.9605C11.3594 12.9803 11.2823 12.9854 11.2065 12.9754C11.1307 12.9654 11.0576 12.9406 10.9914 12.9024C10.9251 12.8641 10.8671 12.8132 10.8205 12.7525C10.7265 12.63 10.685 12.4751 10.7052 12.322C10.7253 12.1689 10.8055 12.0301 10.928 11.936H10.933L10.945 11.927L10.983 11.9C11.005 11.882 11.042 11.86 11.084 11.835L11.11 11.819C11.7171 11.4639 12.4238 11.3174 13.122 11.402C13.1979 11.4114 13.2713 11.4355 13.3378 11.4732C13.4044 11.5109 13.4629 11.5613 13.5099 11.6215C13.557 11.6818 13.5918 11.7507 13.6122 11.8244C13.6326 11.8981 13.6384 11.9751 13.629 12.051C13.6197 12.1269 13.5955 12.2003 13.5579 12.2668C13.5202 12.3334 13.4698 12.3919 13.4095 12.4389C13.3493 12.486 13.2803 12.5208 13.2066 12.5412C13.1329 12.5616 13.0559 12.5674 12.98 12.558C12.5386 12.5027 12.0912 12.5934 11.706 12.816L11.643 12.856ZM18.913 11.933L18.925 11.942L18.934 11.945C19.0491 12.0415 19.1225 12.1786 19.139 12.3279C19.1555 12.4771 19.1137 12.627 19.0225 12.7462C18.9312 12.8654 18.7975 12.9448 18.6491 12.9679C18.5007 12.991 18.3492 12.9559 18.226 12.87L18.215 12.862L18.153 12.822C17.7676 12.5992 17.3198 12.5086 16.878 12.564C16.7247 12.5829 16.5702 12.54 16.4485 12.4449C16.3268 12.3499 16.2479 12.2103 16.229 12.057C16.2102 11.9037 16.253 11.7492 16.3481 11.6275C16.4432 11.5058 16.5827 11.4269 16.736 11.408C17.4342 11.3234 18.141 11.4699 18.748 11.825C18.801 11.857 18.843 11.884 18.875 11.906L18.913 11.933ZM17.47 13.334C17.1273 13.3358 16.7956 13.4548 16.53 13.6713C16.2643 13.8878 16.0809 14.1887 16.01 14.524C16.0036 14.5593 16.005 14.5956 16.0141 14.6303C16.0231 14.665 16.0397 14.6973 16.0625 14.7249C16.0854 14.7525 16.114 14.7748 16.1464 14.7902C16.1788 14.8056 16.2142 14.8137 16.25 14.814H16.34C16.2889 14.6106 16.3026 14.3963 16.379 14.201C16.4378 14.057 16.5313 13.9297 16.6513 13.8306C16.7712 13.7315 16.9139 13.6638 17.0665 13.6334C17.219 13.6029 17.3768 13.6108 17.5256 13.6563C17.6744 13.7018 17.8096 13.7835 17.919 13.894C18.0376 14.012 18.1232 14.1591 18.167 14.3206C18.2109 14.4821 18.2116 14.6522 18.169 14.814H18.619C18.686 14.8145 18.7512 14.7922 18.8039 14.7507C18.8566 14.7093 18.8936 14.6513 18.909 14.586C18.919 14.5426 18.919 14.4975 18.909 14.454C18.8281 14.1336 18.6425 13.8493 18.3816 13.6464C18.1207 13.4435 17.8005 13.3336 17.47 13.334Z" fill="#201911"/>
<path id="Vector_2" d="M17.06 14.057C17.1618 14.0183 17.273 14.0114 17.3788 14.0373C17.4846 14.0631 17.5801 14.1205 17.6526 14.2018C17.7251 14.2831 17.7712 14.3844 17.7849 14.4925C17.7985 14.6006 17.779 14.7102 17.729 14.807H16.769C16.7246 14.7208 16.7043 14.6242 16.7101 14.5275C16.7159 14.4307 16.7476 14.3373 16.802 14.257C16.8117 14.2817 16.8269 14.3037 16.8466 14.3214C16.8663 14.3391 16.8899 14.352 16.9154 14.359C16.941 14.366 16.9678 14.3669 16.9938 14.3617C17.0197 14.3565 17.0441 14.3453 17.065 14.329C17.0966 14.3046 17.1186 14.27 17.1272 14.231C17.1358 14.1921 17.1304 14.1514 17.112 14.116C17.0998 14.0927 17.0823 14.0725 17.061 14.057M15.33 16.994C15.4183 16.9939 15.5053 16.9732 15.5841 16.9334C15.663 16.8936 15.7314 16.836 15.7839 16.765C15.8364 16.694 15.8715 16.6117 15.8865 16.5247C15.9014 16.4377 15.8958 16.3484 15.87 16.264L15.32 14.484C15.2942 14.3994 15.2418 14.3253 15.1707 14.2726C15.0996 14.22 15.0135 14.1916 14.925 14.1916C14.8365 14.1916 14.7504 14.22 14.6793 14.2726C14.6082 14.3253 14.5558 14.3994 14.53 14.484L13.98 16.264C13.9544 16.3484 13.949 16.4376 13.964 16.5246C13.9791 16.6115 14.0142 16.6937 14.0667 16.7646C14.1191 16.8355 14.1875 16.8932 14.2662 16.933C14.3449 16.9728 14.4318 16.9937 14.52 16.994H15.33ZM14.93 18.004C15.4653 18.004 15.9931 17.8772 16.47 17.634C16.4946 17.6221 16.5217 17.6163 16.549 17.6172C16.5763 17.618 16.603 17.6254 16.6269 17.6388C16.6507 17.6521 16.671 17.671 16.686 17.6938C16.701 17.7167 16.7102 17.7428 16.713 17.77C16.7167 17.8062 16.7086 17.8427 16.69 17.874C16.5004 18.1685 16.24 18.4108 15.9325 18.5786C15.625 18.7464 15.2803 18.8343 14.93 18.8343C14.5797 18.8343 14.235 18.7464 13.9275 18.5786C13.62 18.4108 13.3596 18.1685 13.17 17.874C13.1505 17.8427 13.1418 17.8058 13.1452 17.769C13.1486 17.7323 13.1639 17.6977 13.1889 17.6705C13.2138 17.6433 13.247 17.625 13.2833 17.6184C13.3196 17.6118 13.3571 17.6173 13.39 17.634C13.8669 17.8772 14.3947 18.004 14.93 18.004ZM12.61 13.614C12.7343 13.6141 12.8572 13.6388 12.9719 13.6868C13.0865 13.7347 13.1906 13.8048 13.2779 13.8931C13.3653 13.9815 13.4344 14.0862 13.4811 14.2013C13.5278 14.3165 13.5512 14.4397 13.55 14.564C13.55 14.648 13.54 14.732 13.52 14.814H13.61C13.6459 14.8137 13.6812 14.8056 13.7136 14.7902C13.746 14.7748 13.7746 14.7525 13.7975 14.7248C13.8204 14.6972 13.8369 14.6649 13.846 14.6302C13.855 14.5955 13.8564 14.5593 13.85 14.524C13.7792 14.1887 13.5957 13.8878 13.3301 13.6713C13.0644 13.4548 12.7327 13.3357 12.39 13.334C12.0595 13.3335 11.7383 13.4435 11.4774 13.6464C11.2165 13.8493 11.0309 14.1335 10.95 14.454C10.9402 14.4973 10.9403 14.5424 10.9504 14.5857C10.9604 14.629 10.9801 14.6694 11.008 14.7041C11.0359 14.7387 11.0713 14.7665 11.1114 14.7856C11.1516 14.8046 11.1955 14.8143 11.24 14.814H11.69C11.6527 14.6728 11.6483 14.5251 11.677 14.3819C11.7057 14.2388 11.7668 14.1042 11.8556 13.9883C11.9445 13.8725 12.0586 13.7785 12.1894 13.7136C12.3201 13.6487 12.464 13.6146 12.61 13.614Z" fill="#201911"/>
<path id="Vector_3" d="M12.394 14.068C12.529 14.011 12.6812 14.0099 12.817 14.065C12.9159 14.1056 13.0004 14.1748 13.0597 14.2636C13.119 14.3525 13.1504 14.4571 13.15 14.564C13.1515 14.6511 13.1309 14.7371 13.09 14.814H12.13C12.0879 14.7332 12.0669 14.643 12.069 14.5519C12.0711 14.4608 12.0962 14.3718 12.142 14.293C12.1558 14.3125 12.1736 14.3289 12.1942 14.3411C12.2149 14.3533 12.2378 14.361 12.2616 14.3637C12.2854 14.3664 12.3095 14.3641 12.3323 14.3568C12.3551 14.3495 12.3761 14.3375 12.394 14.3216C12.4119 14.3057 12.4261 14.2861 12.4359 14.2643C12.4457 14.2424 12.4508 14.2187 12.4508 14.1948C12.4508 14.1708 12.4457 14.1472 12.4359 14.1253C12.4261 14.1035 12.4119 14.0839 12.394 14.068ZM23.55 10.514C23.6954 10.4314 23.8622 10.3943 24.0289 10.4075C24.1955 10.4207 24.3544 10.4836 24.485 10.588C24.6517 10.7314 24.7568 10.9333 24.7788 11.1521C24.8007 11.3708 24.7377 11.5896 24.6029 11.7633C24.4681 11.9369 24.2716 12.0521 24.0543 12.085C23.8369 12.1179 23.6152 12.066 23.435 11.94C23.3231 11.8528 23.2346 11.7391 23.1775 11.6093C23.1204 11.4794 23.0965 11.3374 23.1079 11.196C23.1193 11.0546 23.1657 10.9182 23.2429 10.7992C23.32 10.6801 23.4256 10.5821 23.55 10.514ZM27.66 8.36398C27.5473 8.36385 27.4357 8.38592 27.3316 8.42891C27.2274 8.47191 27.1328 8.535 27.053 8.61458C26.8919 8.7753 26.8013 8.99343 26.801 9.22098C26.8007 9.44854 26.8909 9.66688 27.0516 9.82798C27.2123 9.98907 27.4304 10.0797 27.658 10.08C27.8856 10.0802 28.1039 9.99011 28.265 9.82939C28.4261 9.66867 28.5167 9.45054 28.517 9.22298C28.5173 8.99543 28.4271 8.77709 28.2664 8.61599C28.1057 8.4549 27.8876 8.36425 27.66 8.36398ZM25.09 8.38398C25.09 8.46355 25.0584 8.53986 25.0021 8.59612C24.9459 8.65238 24.8696 8.68398 24.79 8.68398C24.7104 8.68398 24.6341 8.65238 24.5779 8.59612C24.5216 8.53986 24.49 8.46355 24.49 8.38398C24.49 8.30442 24.5216 8.22811 24.5779 8.17185C24.6341 8.11559 24.7104 8.08398 24.79 8.08398C24.8696 8.08398 24.9459 8.11559 25.0021 8.17185C25.0584 8.22811 25.09 8.30442 25.09 8.38398Z" fill="#201911"/>
<path id="Vector_4" d="M30.146 7.85204C29.8486 7.31102 29.3833 6.88139 28.8203 6.62795C28.2574 6.37452 27.6272 6.31102 27.025 6.44704L27.301 5.49104C27.3735 5.24437 27.3961 4.98571 27.3674 4.73021C27.3388 4.4747 27.2595 4.22747 27.1342 4.00298C27.0088 3.77848 26.84 3.58123 26.6375 3.42276C26.4351 3.26429 26.203 3.14778 25.955 3.08004L25.724 3.00804C25.5971 2.96896 25.4637 2.95554 25.3316 2.96857C25.1994 2.9816 25.0712 3.02081 24.9544 3.08393C24.8375 3.14704 24.7345 3.23279 24.6511 3.33617C24.5678 3.43954 24.5059 3.55848 24.469 3.68604L24.369 4.03304C24.0264 4.04109 23.6898 4.1252 23.3837 4.2793C23.0776 4.4334 22.8096 4.65362 22.599 4.92404C22.2403 5.2551 21.8316 5.52746 21.388 5.73104L20.981 5.61304C20.7816 5.55364 20.5681 5.56208 20.374 5.63704L19.714 4.98604C18.8862 4.16308 17.7673 3.69958 16.6 3.69604C16.098 3.69604 15.6 3.78104 15.127 3.95004C15.0108 3.98881 14.8859 3.99366 14.767 3.96404C14.2552 3.73622 13.7013 3.61802 13.141 3.61704C12.616 3.61626 12.096 3.71952 11.6111 3.92085C11.1263 4.12218 10.6861 4.4176 10.316 4.79004L9.24902 5.83704C9.14402 5.94604 9.02102 6.03704 8.88602 6.10504L8.45202 6.31704C7.65872 6.71379 7.01548 7.3571 6.61881 8.15044C6.22214 8.94377 6.09344 9.84436 6.25202 10.717L6.64602 12.869C6.13737 13.6928 5.96779 14.6817 6.17291 15.6278C6.37803 16.574 6.94189 17.4039 7.74602 17.943L7.79102 18.582V18.633C7.84002 19.14 7.95502 19.639 8.13302 20.116C5.33171 21.7901 3.23797 24.4294 2.24502 27.538L2.22502 27.598C1.91021 28.5806 1.67282 29.5864 1.51502 30.606C1.4456 31.0373 1.52013 31.4793 1.72708 31.864C1.93404 32.2486 2.2619 32.5544 2.66002 32.734C2.92302 32.854 3.21002 32.915 3.49902 32.914H26.339C26.6267 32.913 26.9108 32.8501 27.172 32.7296C27.4332 32.6091 27.6654 32.4338 27.8529 32.2157C28.0404 31.9975 28.1788 31.7416 28.2587 31.4652C28.3386 31.1889 28.3582 30.8986 28.316 30.614C28.1588 29.5995 27.9313 28.597 27.635 27.614C26.9623 25.4462 25.7449 23.4871 24.099 21.924C24.0605 21.8817 24.0201 21.8409 23.978 21.802C23.2872 21.1611 22.5303 20.5952 21.72 20.114C21.8979 19.6409 22.0122 19.1462 22.06 18.643V18.591L22.106 17.944C22.9095 17.4023 23.4713 16.5699 23.673 15.622C23.7775 15.1132 23.7727 14.5879 23.659 14.081C23.759 14.099 23.859 14.113 23.959 14.121C24.6025 14.1202 25.2266 13.9002 25.7283 13.4972C26.23 13.0942 26.5794 12.5323 26.719 11.904C27.275 12.0978 27.8773 12.1145 28.4432 11.9519C29.0091 11.7893 29.5107 11.4554 29.879 10.996C30.2296 10.5572 30.4421 10.0241 30.4894 9.46443C30.5368 8.90473 30.4179 8.34356 30.146 7.85204ZM22.62 23.264V23.273C24.067 24.6092 25.1362 26.303 25.72 28.184C25.99 29.078 26.198 29.991 26.34 30.914H3.50002C3.64002 30.006 3.85002 29.11 4.13002 28.234L4.16002 28.144C4.63205 26.6644 5.40279 25.2975 6.42454 24.1278C7.44628 22.9581 8.69726 22.0106 10.1 21.344C10.5523 21.7958 11.0986 22.1424 11.7 22.359C11.7329 23.1944 12.0878 23.9845 12.6904 24.5639C13.2931 25.1433 14.0966 25.4669 14.9325 25.4669C15.7685 25.4669 16.572 25.1433 17.1746 24.5639C17.7772 23.9845 18.1322 23.1944 18.165 22.359C18.7703 22.14 19.3197 21.79 19.774 21.334C20.8153 21.8289 21.775 22.4797 22.62 23.264ZM12.72 22.597C12.886 22.615 13.053 22.624 13.22 22.624H16.64C16.803 22.624 16.966 22.615 17.128 22.598C17.0416 23.1204 16.7724 23.5951 16.3686 23.9376C15.9648 24.2801 15.4525 24.4681 14.923 24.4681C14.3935 24.4681 13.8812 24.2801 13.4774 23.9376C13.0736 23.5951 12.8045 23.1204 12.718 22.598L12.72 22.597ZM21.699 15.297C21.6059 15.6348 21.4128 15.9366 21.1451 16.1627C20.8774 16.3888 20.5476 16.5287 20.199 16.564L20.067 18.444C20.0261 18.9244 19.8869 19.3912 19.6579 19.8154C19.4289 20.2396 19.1151 20.6122 18.736 20.91C18.1354 21.3757 17.396 21.6268 16.636 21.623H13.22C12.4608 21.6278 11.7218 21.379 11.12 20.916C10.7405 20.6174 10.4266 20.2437 10.1978 19.8184C9.96897 19.3932 9.83016 18.9253 9.79002 18.444L9.65702 16.564C9.30861 16.5291 8.97885 16.3898 8.71085 16.1644C8.44286 15.9391 8.2491 15.6381 8.1549 15.3008C8.0607 14.9636 8.07045 14.6057 8.18287 14.2741C8.29529 13.9425 8.50515 13.6525 8.78502 13.442L8.82002 13.634C8.84764 13.7932 8.92944 13.9379 9.05155 14.0436C9.17367 14.1493 9.32857 14.2095 9.49002 14.214L9.39002 12.684C9.37797 12.5312 9.40149 12.3776 9.45875 12.2353C9.516 12.093 9.60543 11.966 9.72002 11.864L9.92002 11.694C10.0528 11.5762 10.1589 11.4314 10.2313 11.2693C10.3037 11.1072 10.3408 10.9316 10.34 10.754V9.83404C10.3402 9.70758 10.3827 9.58481 10.4605 9.48518C10.5384 9.38555 10.6473 9.31477 10.77 9.28404C12.1299 8.96469 13.5232 8.81024 14.92 8.82404C16.3168 8.81024 17.7102 8.96469 19.07 9.28404C19.1927 9.3111 19.3024 9.37952 19.3807 9.47783C19.459 9.57614 19.5011 9.69837 19.5 9.82404V10.744C19.4993 10.9216 19.5364 11.0972 19.6088 11.2593C19.6812 11.4213 19.7873 11.5661 19.92 11.684L20.13 11.874C20.2422 11.9757 20.3301 12.1013 20.3872 12.2415C20.4444 12.3817 20.4692 12.5329 20.46 12.684L20.36 14.204C20.5191 14.1953 20.6707 14.1334 20.7903 14.0282C20.91 13.923 20.9909 13.7807 21.02 13.624L21.055 13.435C21.3368 13.6437 21.549 13.9327 21.6638 14.2641C21.7785 14.5955 21.7905 14.9538 21.698 15.292L21.699 15.297ZM28.549 10.834C28.122 11.07 27.6188 11.1267 27.1499 10.9917C26.6811 10.8566 26.2851 10.541 26.049 10.114C25.9152 9.87503 25.8398 9.60775 25.829 9.33404L25.445 9.21804L25.205 9.14904L25.021 9.79404C25.245 9.94904 25.429 10.154 25.56 10.394C25.7559 10.7301 25.8386 11.1202 25.7959 11.5068C25.7533 11.8935 25.5876 12.2562 25.3232 12.5415C25.0588 12.8268 24.7098 13.0196 24.3275 13.0916C23.9453 13.1635 23.55 13.1107 23.2 12.941C23.0569 12.8744 22.9226 12.7905 22.8 12.691L22.762 12.662C22.7439 12.6494 22.7265 12.6357 22.71 12.621C22.5629 12.4901 22.4385 12.3357 22.342 12.164C22.1061 11.737 22.0494 11.2338 22.1844 10.765C22.3194 10.2962 22.6351 9.90016 23.062 9.66404C23.301 9.53004 23.568 9.45404 23.842 9.44404L24.027 8.80904L21.3 8.02404C21.0549 7.94945 20.8481 7.7828 20.7232 7.55906C20.5983 7.33531 20.5649 7.07188 20.63 6.82404L20.7 6.57404L24.368 7.63504L25.358 4.20804L25.43 3.96404L25.69 4.04404C25.8103 4.07695 25.9227 4.13355 26.0208 4.21053C26.1189 4.2875 26.2006 4.3833 26.2612 4.49229C26.3217 4.60128 26.3599 4.72127 26.3734 4.84521C26.387 4.96915 26.3756 5.09455 26.34 5.21404L25.547 7.96904L26.17 8.14404C26.274 7.99804 26.4 7.87004 26.544 7.76404C26.6155 7.7055 26.691 7.65204 26.77 7.60404C27.197 7.38438 27.6927 7.33981 28.152 7.47979C28.6113 7.61978 28.9979 7.93331 29.2298 8.35377C29.4616 8.77423 29.5204 9.26851 29.3937 9.73163C29.2669 10.1947 28.9646 10.5902 28.551 10.834H28.549Z" fill="#201911"/>
</g>
</g>
<defs>
<clipPath id="clip0_843_269">
<rect width="32" height="32" fill="white" transform="translate(0.5 0.963989)"/>
</clipPath>
</defs>
</svg>
