<svg width="40" height="39" viewBox="0 0 40 39" fill="none" xmlns="http://www.w3.org/2000/svg">
<g id="skill-icons:instagram" clip-path="url(#clip0_295_1268)">
<g id="Group">
<path id="Vector" d="M30.2368 0H9.63767C4.61858 0 0.549805 4.06878 0.549805 9.08786V29.687C0.549805 34.7061 4.61858 38.7749 9.63767 38.7749H30.2368C35.2559 38.7749 39.3247 34.7061 39.3247 29.687V9.08786C39.3247 4.06878 35.2559 0 30.2368 0Z" fill="url(#paint0_radial_295_1268)"/>
<path id="Vector_2" d="M30.2368 0H9.63767C4.61858 0 0.549805 4.06878 0.549805 9.08786V29.687C0.549805 34.7061 4.61858 38.7749 9.63767 38.7749H30.2368C35.2559 38.7749 39.3247 34.7061 39.3247 29.687V9.08786C39.3247 4.06878 35.2559 0 30.2368 0Z" fill="url(#paint1_radial_295_1268)"/>
<path id="Vector_3" d="M19.9386 4.24097C15.8251 4.24097 15.3088 4.25899 13.6932 4.33245C12.0808 4.40637 10.9801 4.66158 10.0171 5.03615C9.02072 5.42299 8.1757 5.94055 7.33386 6.78269C6.49126 7.62468 5.97371 8.4697 5.58566 9.46558C5.21003 10.4289 4.9545 11.53 4.88195 13.1418C4.8097 14.7574 4.79077 15.2739 4.79077 19.3876C4.79077 23.5012 4.80895 24.0159 4.88226 25.6314C4.95647 27.2439 5.21169 28.3446 5.58596 29.3076C5.9731 30.3039 6.49066 31.1489 7.3328 31.9908C8.17449 32.8334 9.01951 33.3521 10.0151 33.739C10.9789 34.1135 12.0797 34.3687 13.6919 34.4427C15.3076 34.5161 15.8234 34.5341 19.9368 34.5341C24.0507 34.5341 24.5654 34.5161 26.1809 34.4427C27.7934 34.3687 28.8953 34.1135 29.859 33.739C30.8549 33.3521 31.6987 32.8334 32.5403 31.9908C33.3829 31.1489 33.9003 30.3039 34.2885 29.308C34.6608 28.3446 34.9164 27.2436 34.9922 25.6317C35.0647 24.0162 35.0837 23.5012 35.0837 19.3876C35.0837 15.2739 35.0647 14.7577 34.9922 13.1421C34.9164 11.5296 34.6608 10.429 34.2885 9.46603C33.9003 8.4697 33.3829 7.62468 32.5403 6.78269C31.6978 5.94025 30.8552 5.42269 29.8581 5.03631C28.8925 4.66158 27.7912 4.40621 26.1788 4.33245C24.5631 4.25899 24.0487 4.24097 19.9339 4.24097H19.9386ZM18.5798 6.97051C18.9831 6.9699 19.4331 6.97051 19.9386 6.97051C23.9828 6.97051 24.4621 6.98505 26.0591 7.0576C27.5359 7.12515 28.3374 7.37189 28.8713 7.57924C29.5782 7.8537 30.0821 8.18192 30.612 8.7122C31.1421 9.24232 31.4702 9.74715 31.7454 10.454C31.9527 10.9872 32.1998 11.7887 32.267 13.2655C32.3396 14.8623 32.3553 15.3418 32.3553 19.3841C32.3553 23.4264 32.3396 23.906 32.267 25.5026C32.1995 26.9794 31.9527 27.781 31.7454 28.3143C31.4709 29.0211 31.1421 29.5245 30.612 30.0543C30.0818 30.5844 29.5785 30.9125 28.8713 31.1871C28.338 31.3954 27.5359 31.6415 26.0591 31.709C24.4624 31.7816 23.9828 31.7973 19.9386 31.7973C15.8942 31.7973 15.4148 31.7816 13.8182 31.709C12.3414 31.6409 11.5399 31.3941 11.0055 31.1868C10.2988 30.9122 9.79379 30.5841 9.26367 30.054C8.73354 29.5239 8.40547 29.0202 8.13026 28.3131C7.9229 27.7797 7.67587 26.9782 7.60862 25.5014C7.53606 23.9047 7.52152 23.4251 7.52152 19.3803C7.52152 15.3356 7.53606 14.8585 7.60862 13.2617C7.67617 11.785 7.9229 10.9834 8.13026 10.4495C8.40486 9.74261 8.73354 9.23778 9.26382 8.70765C9.79394 8.17753 10.2988 7.8493 11.0057 7.57424C11.5396 7.36598 12.3414 7.11985 13.8182 7.05199C15.2155 6.98883 15.7569 6.9699 18.5798 6.96672V6.97051ZM28.0237 9.48542C27.0203 9.48542 26.2062 10.2988 26.2062 11.3024C26.2062 12.3058 27.0203 13.12 28.0237 13.12C29.0272 13.12 29.8413 12.3058 29.8413 11.3024C29.8413 10.2989 29.0272 9.48482 28.0237 9.48482V9.48542ZM19.9386 11.6091C15.643 11.6091 12.1603 15.0919 12.1603 19.3876C12.1603 23.6832 15.643 27.1643 19.9386 27.1643C24.2343 27.1643 27.7158 23.6832 27.7158 19.3876C27.7158 15.092 24.234 11.6091 19.9383 11.6091H19.9386ZM19.9386 14.3386C22.7269 14.3386 24.9875 16.5989 24.9875 19.3876C24.9875 22.1759 22.7269 24.4365 19.9386 24.4365C17.1501 24.4365 14.8898 22.1759 14.8898 19.3876C14.8898 16.5989 17.1501 14.3386 19.9386 14.3386Z" fill="white"/>
</g>
</g>
<defs>
<radialGradient id="paint0_radial_295_1268" cx="0" cy="0" r="1" gradientUnits="userSpaceOnUse" gradientTransform="translate(10.8494 41.7613) rotate(-90) scale(38.4288 35.7418)">
<stop stop-color="#FFDD55"/>
<stop offset="0.1" stop-color="#FFDD55"/>
<stop offset="0.5" stop-color="#FF543E"/>
<stop offset="1" stop-color="#C837AB"/>
</radialGradient>
<radialGradient id="paint1_radial_295_1268" cx="0" cy="0" r="1" gradientUnits="userSpaceOnUse" gradientTransform="translate(-5.94514 2.79315) rotate(78.681) scale(17.1779 70.8078)">
<stop stop-color="#3771C8"/>
<stop offset="0.128" stop-color="#3771C8"/>
<stop offset="1" stop-color="#6600FF" stop-opacity="0"/>
</radialGradient>
<clipPath id="clip0_295_1268">
<rect width="38.7749" height="38.7749" fill="white" transform="translate(0.549805)"/>
</clipPath>
</defs>
</svg>
