<svg width="39" height="39" viewBox="0 0 39 39" fill="none" xmlns="http://www.w3.org/2000/svg">
<g id="skill-icons:linkedin" clip-path="url(#clip0_295_1273)">
<g id="Group">
<path id="Vector" d="M29.687 0H9.08786C4.06878 0 0 4.06878 0 9.08786V29.687C0 34.7061 4.06878 38.7749 9.08786 38.7749H29.687C34.7061 38.7749 38.7749 34.7061 38.7749 29.687V9.08786C38.7749 4.06878 34.7061 0 29.687 0Z" fill="white"/>
<path id="Vector_2" d="M29.687 0H9.08786C4.06878 0 0 4.06878 0 9.08786V29.687C0 34.7061 4.06878 38.7749 9.08786 38.7749H29.687C34.7061 38.7749 38.7749 34.7061 38.7749 29.687V9.08786C38.7749 4.06878 34.7061 0 29.687 0Z" fill="#0A66C2"/>
<path id="Vector_3" d="M27.9777 32.9717H32.4111C32.5717 32.9717 32.7258 32.9079 32.8394 32.7943C32.953 32.6808 33.0169 32.5267 33.0169 32.366L33.0192 22.9992C33.0192 18.1034 31.9643 14.3403 26.243 14.3403C24.0681 14.2594 22.0171 15.3805 20.9104 17.2526C20.905 17.2617 20.8967 17.2688 20.8869 17.2728C20.8771 17.2767 20.8663 17.2774 20.8561 17.2746C20.8459 17.2719 20.8368 17.2658 20.8304 17.2574C20.8239 17.2491 20.8204 17.2388 20.8203 17.2282V15.3981C20.8203 15.2374 20.7564 15.0833 20.6428 14.9697C20.5292 14.8561 20.3751 14.7922 20.2144 14.7922H16.0072C15.8465 14.7922 15.6924 14.8561 15.5788 14.9697C15.4652 15.0833 15.4013 15.2374 15.4013 15.3981V32.3651C15.4013 32.5258 15.4652 32.6799 15.5788 32.7935C15.6924 32.9072 15.8465 32.971 16.0072 32.971H20.4402C20.6009 32.971 20.755 32.9072 20.8686 32.7935C20.9823 32.6799 21.0461 32.5258 21.0461 32.3651V23.9781C21.0461 21.6066 21.4959 19.31 24.436 19.31C27.3343 19.31 27.3719 22.0236 27.3719 24.1317V32.3659C27.3719 32.5266 27.4357 32.6807 27.5493 32.7943C27.6629 32.9079 27.817 32.9717 27.9777 32.9717ZM5.75562 9.03173C5.75562 10.8287 7.23497 12.3073 9.03209 12.3073C10.8288 12.3071 12.3072 10.8276 12.3072 9.03097C12.3069 7.2343 10.8283 5.75586 9.03149 5.75586C7.23421 5.75586 5.75562 7.23476 5.75562 9.03173ZM6.80966 32.9717H11.2486C11.4093 32.9717 11.5634 32.9079 11.677 32.7943C11.7906 32.6807 11.8545 32.5266 11.8545 32.3659V15.3981C11.8545 15.2374 11.7906 15.0833 11.677 14.9697C11.5634 14.8561 11.4093 14.7922 11.2486 14.7922H6.80966C6.64897 14.7922 6.49487 14.8561 6.38125 14.9697C6.26763 15.0833 6.2038 15.2374 6.2038 15.3981V32.3659C6.2038 32.5266 6.26763 32.6807 6.38125 32.7943C6.49487 32.9079 6.64897 32.9717 6.80966 32.9717Z" fill="white"/>
</g>
</g>
<defs>
<clipPath id="clip0_295_1273">
<rect width="38.7749" height="38.7749" fill="white"/>
</clipPath>
</defs>
</svg>
