<svg width="51" height="51" viewBox="0 0 51 51" fill="none" xmlns="http://www.w3.org/2000/svg">
<g id="fluent-emoji-high-contrast:nail-polish">
<path id="Vector" d="M48.0531 2.40613H41.8156C41.6252 2.40618 41.4414 2.47575 41.2987 2.60177C41.156 2.72779 41.0642 2.90159 41.0406 3.0905L40.4547 7.778C40.441 7.88777 40.4507 7.99921 40.4833 8.10492C40.5159 8.21064 40.5705 8.30824 40.6436 8.39125C40.7168 8.47427 40.8067 8.54081 40.9074 8.58647C41.0082 8.63213 41.1175 8.65588 41.2281 8.65613H43.3125L42.4578 13.353C42.2085 13.3625 41.9618 13.4072 41.725 13.4858C41.5161 13.5539 41.317 13.649 41.1328 13.7686C41.1031 13.7889 41.0781 13.8108 41.05 13.8327C40.8893 13.9482 40.7434 14.0831 40.6156 14.2343C40.5953 14.2577 40.5734 14.278 40.5531 14.303C40.4246 14.4709 40.3215 14.6567 40.2469 14.8546C40.2422 14.8733 40.2266 14.8874 40.2203 14.9061H40.2313C40.1453 15.1329 40.0998 15.373 40.0969 15.6155L40.0984 15.6874V17.8858C40.0984 18.2796 39.875 18.6733 39.6625 18.9608C39.4969 19.1858 39.5625 19.5186 39.8375 19.5608C41.7047 19.8405 45.0391 18.3421 45.0391 15.6171C45.0391 15.3671 44.9844 15.1327 44.9047 14.9077H44.9156C44.9094 14.8889 44.8937 14.8749 44.8859 14.8561C44.8106 14.6586 44.7075 14.4729 44.5797 14.3046C44.5609 14.2796 44.5375 14.2593 44.5188 14.2358C44.3908 14.0843 44.2443 13.9494 44.0828 13.8343C44.0547 13.8139 44.0297 13.7905 44 13.7718L43.975 13.753L44.9016 8.65613H46.7766C47.1573 8.65602 47.525 8.51688 47.8104 8.26484C48.0958 8.0128 48.2793 7.66521 48.3266 7.28738L48.8266 3.28425C48.8403 3.17448 48.8305 3.06305 48.798 2.95733C48.7654 2.85161 48.7107 2.75402 48.6376 2.671C48.5645 2.58799 48.4746 2.52145 48.3738 2.47579C48.2731 2.43012 48.1637 2.40638 48.0531 2.40613ZM44.0375 4.11082L43.2563 7.23582C43.2185 7.38666 43.1225 7.51634 42.9891 7.59634C42.8558 7.67633 42.6962 7.70009 42.5453 7.66238C42.3945 7.62467 42.2648 7.52858 42.1848 7.39525C42.1048 7.26193 42.081 7.10228 42.1187 6.95144L42.9 3.82644C42.9377 3.6756 43.0338 3.54592 43.1671 3.46592C43.3004 3.38592 43.4601 3.36217 43.6109 3.39988C43.7618 3.43759 43.8915 3.53368 43.9715 3.667C44.0515 3.80033 44.0752 3.95997 44.0375 4.11082ZM43.5219 26.2905C43.5219 24.9921 43.025 23.6905 42.0344 22.6999C41.6677 22.3342 41.171 22.1289 40.6531 22.1289C40.1353 22.1289 39.6386 22.3342 39.2719 22.6999L38.9469 23.0249C38.6779 21.944 38.1225 20.9557 37.3391 20.1639C37.1969 20.0218 37.0328 19.9155 36.8797 19.7889C36.8813 19.7468 36.8922 19.7046 36.8922 19.6608C36.8922 18.3624 36.3953 17.0608 35.4062 16.0702C35.0395 15.7046 34.5428 15.4992 34.025 15.4992C33.5072 15.4992 33.0105 15.7046 32.6438 16.0702L30.1078 18.6046C29.895 17.7856 29.517 17.0189 28.9969 16.3514C29.8066 15.4342 30.2568 14.2547 30.2641 13.0311C30.2641 11.7327 29.7672 10.4311 28.7766 9.4405C28.4099 9.07487 27.9131 8.86955 27.3953 8.86955C26.8775 8.86955 26.3808 9.07487 26.0141 9.4405L20.4906 14.9655L3.625 31.7796V46.9374C3.625 47.1446 3.70731 47.3433 3.85382 47.4898C4.00034 47.6363 4.19905 47.7186 4.40625 47.7186H31.8797L41.7578 37.8405C42.3388 37.2603 42.7995 36.5713 43.1138 35.8128C43.428 35.0543 43.5895 34.2412 43.5891 33.4202C43.5799 32.0372 43.111 30.6965 42.2563 29.6093C43.0859 28.6577 43.5219 27.478 43.5219 26.2905ZM6.75 33.0733L20.2203 19.6046C20.3078 19.7171 20.3875 19.8327 20.4906 19.9358C20.8168 20.2626 21.2043 20.5218 21.6309 20.6985C22.0575 20.8752 22.5148 20.9659 22.9766 20.9655C23.875 20.9655 24.7766 20.6218 25.4625 19.9358L26.7828 18.6155C27.0562 19.0936 27.2047 19.6218 27.2062 20.1608C27.2074 20.5713 27.127 20.978 26.9698 21.3573C26.8127 21.7365 26.5818 22.0808 26.2906 22.3702L6.75 41.9124V33.0733ZM8.4875 44.5936L26.8469 26.2343C26.9344 26.3468 27.0141 26.4624 27.1172 26.5655C27.4434 26.8923 27.8309 27.1515 28.2575 27.3282C28.6841 27.5049 29.1414 27.5956 29.6031 27.5952C30.5016 27.5952 31.4047 27.2514 32.0891 26.5655L35.4031 23.2514C35.4797 23.1749 35.5328 23.0858 35.6031 23.0061C35.9574 23.5996 36.103 24.2946 36.0166 24.9804C35.9302 25.6662 35.6169 26.3034 35.1266 26.7905L17.3266 44.5936H8.4875ZM39.5484 35.6311L30.5859 44.5936H21.7469L33.4781 32.8624C33.5656 32.9749 33.6469 33.0921 33.75 33.1952C34.0762 33.522 34.4637 33.7812 34.8903 33.9579C35.3169 34.1346 35.7742 34.2253 36.2359 34.2249C37.1344 34.2249 38.0359 33.8811 38.7219 33.1952L40.0422 31.8749C40.3156 32.353 40.4641 32.8811 40.4656 33.4202C40.466 33.831 40.3851 34.2378 40.2277 34.6172C40.0703 34.9966 39.8395 35.3412 39.5484 35.6311Z" fill="#201911"/>
</g>
</svg>
