<svg width="73" height="72" viewBox="0 0 73 72" fill="none" xmlns="http://www.w3.org/2000/svg">
<g id="mdi:hair-dryer-outline" clip-path="url(#clip0_843_390)">
<path id="Vector" d="M31.9633 35.0084C36.8743 36.7512 41.8714 38.2411 46.935 39.4723L54.629 26.4021C54.629 26.4021 44.6907 15.5233 39.0892 12.2258C36.5915 10.7649 33.6475 10.2628 30.8067 10.813C27.9659 11.3633 25.4224 12.9284 23.6508 15.2162C21.8792 17.5041 21.0005 20.3584 21.1788 23.2465C21.3571 26.1346 22.5802 28.8592 24.6198 30.9118L19.4701 43.4181L21.3373 44.5173C20.8881 45.4512 20.6687 46.479 20.6974 47.5149C20.7261 48.5508 21.0021 49.5649 21.5023 50.4725C22.0654 51.4975 22.3557 52.6499 22.3453 53.8193C22.3349 54.9887 22.0242 56.1358 21.4431 57.1505L23.3102 58.2497C24.0589 56.9584 24.4719 55.5 24.5113 54.0079C24.5508 52.5158 24.2154 51.0376 23.536 49.7086C22.8335 47.9122 22.512 46.7927 23.2045 45.6164L25.0716 46.7156M26.5088 18.6482C27.5291 16.915 29.1961 15.6581 31.1432 15.154C33.0902 14.6499 35.1577 14.9399 36.8909 15.9602C41.379 19.2059 45.5193 22.907 49.246 27.0045L44.8494 34.4732C39.4582 33.2033 34.2128 31.3793 29.1969 29.0303C27.4637 28.01 26.2068 26.343 25.7027 24.396C25.1985 22.449 25.4885 20.3814 26.5088 18.6482ZM58.4691 41.2337C56.9989 40.417 55.7758 39.2194 54.9286 37.7666C54.2599 36.5926 53.2812 35.6251 52.0996 34.9699L53.1988 33.1027C54.669 33.9193 55.8921 35.117 56.7393 36.5698C57.408 37.7438 58.3867 38.7113 59.5683 39.3665M61.7666 35.6322C60.585 34.977 59.6063 34.0095 58.9376 32.8354C58.0904 31.3827 56.8673 30.185 55.3971 29.3684L54.2979 31.2356C55.4795 31.8907 56.4582 32.8583 57.1269 34.0323C57.9741 35.4851 59.1972 36.6827 60.6674 37.4993M57.37 43.1008C56.1884 42.4457 55.2097 41.4781 54.541 40.3041C53.6938 38.8513 52.4707 37.6537 51.0005 36.8371L49.9013 38.7042C51.0829 39.3594 52.0616 40.3269 52.7303 41.5009C53.5775 42.9537 54.8006 44.1514 56.2708 44.968M35.8447 24.144C35.5186 24.6979 35.0356 25.1427 34.4567 25.4221C33.8778 25.7015 33.2291 25.803 32.5925 25.7137C31.9559 25.6245 31.3602 25.3484 30.8805 24.9205C30.4008 24.4926 30.0588 23.9321 29.8977 23.3099C29.7365 22.6876 29.7636 22.0315 29.9753 21.4246C30.1871 20.8177 30.5741 20.2872 31.0873 19.9002C31.6005 19.5132 32.217 19.2871 32.8588 19.2505C33.5005 19.2139 34.1387 19.3684 34.6926 19.6945C35.4354 20.1318 35.9741 20.8462 36.1902 21.6806C36.4062 22.5151 36.2819 23.4012 35.8447 24.144Z" fill="#201911"/>
</g>
<defs>
<clipPath id="clip0_843_390">
<rect width="52" height="52" fill="white" transform="translate(27.2838 0.247925) rotate(30.4841)"/>
</clipPath>
</defs>
</svg>
