<svg width="51" height="51" viewBox="0 0 51 51" fill="none" xmlns="http://www.w3.org/2000/svg">
<g id="fluent-emoji-high-contrast:man-beard">
<g id="Group">
<path id="Vector" d="M32.3562 24.4061C34.2531 24.4061 35.8562 25.7186 36.3047 27.4796C36.3335 27.598 36.3348 27.7214 36.3087 27.8404C36.2825 27.9595 36.2295 28.0709 36.1537 28.1664C36.0778 28.2618 35.9812 28.3386 35.8712 28.391C35.7611 28.4434 35.6406 28.4699 35.5187 28.4686H34.2687C34.3758 28.0817 34.3919 27.6752 34.3157 27.2811C34.2394 26.8869 34.0729 26.5158 33.8293 26.1967C33.5856 25.8777 33.2713 25.6194 32.9111 25.4421C32.5509 25.2648 32.1546 25.1733 31.7531 25.1749C31.4115 25.1732 31.073 25.2394 30.7572 25.3697C30.4414 25.5 30.1547 25.6917 29.9136 25.9338C29.6726 26.1758 29.4821 26.4634 29.3531 26.7797C29.2242 27.096 29.1594 27.4348 29.1625 27.7764C29.1625 28.0217 29.1937 28.253 29.2562 28.4686H29.0234C28.9252 28.4693 28.828 28.4482 28.7388 28.4071C28.6496 28.3659 28.5705 28.3056 28.5073 28.2304C28.444 28.1552 28.3981 28.067 28.3728 27.9721C28.3475 27.8771 28.3435 27.7778 28.3609 27.6811C28.5436 26.7565 29.0421 25.9242 29.7709 25.3268C30.4998 24.7293 31.4138 24.4038 32.3562 24.4061ZM14.4765 27.4796C14.7024 26.5827 15.2266 25.7894 15.9632 25.2301C16.6997 24.6708 17.6046 24.3788 18.5292 24.402C19.4537 24.4253 20.3428 24.7625 21.0503 25.3582C21.7577 25.9538 22.2414 26.7725 22.4218 27.6796C22.4396 27.7765 22.4357 27.8761 22.4104 27.9714C22.3851 28.0666 22.3391 28.1551 22.2757 28.2305C22.2122 28.3059 22.1329 28.3663 22.0434 28.4075C21.9538 28.4487 21.8563 28.4695 21.7578 28.4686H21.5265C21.589 28.253 21.6187 28.0217 21.6187 27.7764C21.6187 26.3295 20.4625 25.1749 19.0265 25.1749C18.6252 25.1736 18.229 25.2652 17.869 25.4426C17.509 25.62 17.195 25.8783 16.9515 26.1973C16.7079 26.5164 16.5416 26.8874 16.4654 27.2815C16.3893 27.6755 16.4054 28.0818 16.5125 28.4686H15.2625C15.1406 28.4699 15.02 28.4434 14.91 28.391C14.8 28.3386 14.7033 28.2618 14.6275 28.1664C14.5517 28.0709 14.4987 27.9595 14.4725 27.8404C14.4463 27.7214 14.4477 27.598 14.4765 27.4796Z" fill="#201911"/>
<path id="Vector_2" d="M30.2578 27.7764C30.2577 27.4842 30.3447 27.1986 30.5078 26.9561C30.575 27.128 30.7422 27.2499 30.9359 27.2499C31.035 27.2488 31.1312 27.2164 31.2108 27.1573C31.2903 27.0981 31.349 27.0153 31.3785 26.9207C31.408 26.8261 31.4068 26.7246 31.375 26.6307C31.3432 26.5369 31.2825 26.4555 31.2015 26.3983C31.4829 26.2877 31.7914 26.266 32.0854 26.3361C32.3795 26.4061 32.6451 26.5645 32.8464 26.79C33.0478 27.0155 33.1752 27.2973 33.2116 27.5974C33.248 27.8975 33.1916 28.2015 33.05 28.4686H30.4297C30.3187 28.2546 30.2598 28.0175 30.2578 27.7764ZM19.0265 26.2983C19.2818 26.2976 19.533 26.363 19.7555 26.4881C19.9781 26.6132 20.1645 26.7938 20.2966 27.0123C20.4287 27.2307 20.502 27.4797 20.5095 27.7348C20.5169 27.99 20.4582 28.2428 20.339 28.4686H17.7156C17.6057 28.2544 17.5478 28.0172 17.5468 27.7764C17.5468 27.5077 17.6187 27.2545 17.7453 27.0374C17.7992 27.1223 17.8794 27.1873 17.9737 27.2223C18.068 27.2574 18.1712 27.2607 18.2675 27.2317C18.3638 27.2026 18.448 27.1429 18.5072 27.0615C18.5664 26.9802 18.5973 26.8817 18.5953 26.7811C18.5954 26.7132 18.5808 26.646 18.5525 26.5842C18.5242 26.5224 18.4828 26.4675 18.4312 26.4233C18.6189 26.3409 18.8216 26.2983 19.0265 26.2983ZM15.3906 22.0624L14.3953 20.867C14.0768 21.1294 13.8756 21.5074 13.8359 21.9181C13.8162 22.1215 13.8368 22.3267 13.8965 22.5221C13.9561 22.7175 14.0537 22.8992 14.1836 23.0569C14.3135 23.2146 14.4731 23.3451 14.6535 23.4411C14.8338 23.5371 15.0313 23.5966 15.2346 23.6163C15.6453 23.656 16.0549 23.5309 16.3734 23.2686L16.3781 23.2639L16.3953 23.2514C16.425 23.2295 16.4781 23.192 16.5547 23.142C16.7109 23.0483 16.9515 22.9124 17.2703 22.7858C18.1357 22.4486 19.0761 22.3514 19.9922 22.5045C20.3995 22.5688 20.8157 22.4686 21.1492 22.2259C21.4826 21.9833 21.7061 21.6182 21.7703 21.2108C21.8345 20.8034 21.7343 20.3873 21.4917 20.0538C21.249 19.7203 20.8839 19.4969 20.4765 19.4327C19.012 19.1927 17.5098 19.3519 16.1281 19.8936C15.7025 20.0607 15.293 20.2662 14.9047 20.5077C14.7493 20.6046 14.5986 20.7089 14.4531 20.8202L14.4187 20.8483L14.4047 20.8592L14.4 20.8639L14.3968 20.8655C14.3968 20.8655 14.3953 20.867 15.3906 22.0624ZM36.2281 20.867C36.5293 21.1343 36.7152 21.508 36.7467 21.9095C36.7782 22.311 36.6527 22.7091 36.3968 23.0201C36.1409 23.331 35.7744 23.5307 35.3743 23.577C34.9742 23.6234 34.5718 23.5128 34.2515 23.2686L34.2297 23.2514C33.9563 23.064 33.6628 22.9078 33.3547 22.7858C32.4893 22.4486 31.5488 22.3514 30.6328 22.5045C30.4311 22.5364 30.2251 22.5281 30.0266 22.4803C29.8281 22.4325 29.6409 22.3461 29.4758 22.2259C29.3107 22.1058 29.1708 21.9543 29.0643 21.7801C28.9577 21.606 28.8865 21.4125 28.8547 21.2108C28.8229 21.0091 28.8311 20.8031 28.8789 20.6046C28.9267 20.4061 29.0131 20.2189 29.1333 20.0538C29.2534 19.8887 29.4049 19.7488 29.5791 19.6423C29.7532 19.5357 29.9467 19.4645 30.1484 19.4327C31.613 19.1926 33.1152 19.3519 34.4968 19.8936C35.0187 20.0999 35.4297 20.3264 35.7203 20.5077C35.8757 20.6046 36.0264 20.7089 36.1718 20.8202L36.2062 20.8483L36.2203 20.8592L36.225 20.8639L36.2281 20.867ZM25.3906 38.2092C24.1578 38.2092 23 37.9483 22.0281 37.4905C21.6953 37.3389 21.3375 37.678 21.5468 37.9483C22.3593 39.0577 23.7765 39.7967 25.3906 39.7967C27.0047 39.7967 28.4218 39.0577 29.2343 37.9483C29.4437 37.667 29.0859 37.3389 28.7531 37.492C27.6985 37.9751 26.5506 38.2204 25.3906 38.2108" fill="#201911"/>
<path id="Vector_3" d="M39.4328 9.68427L40.6828 10.3061C42.8703 11.3952 44.1203 13.8811 43.6515 16.5233L42.4031 22.9577C43.4881 23.5386 44.3775 24.4267 44.9598 25.5109C45.5422 26.595 45.7916 27.827 45.6768 29.0523C45.562 30.2776 45.0881 31.4417 44.3145 32.3988C43.541 33.356 42.5021 34.0635 41.3281 34.4327L41.05 38.5733L41.0469 38.6093C40.5078 44.5593 35.789 48.7812 30.1375 48.7812H20.7812C14.9562 48.7812 10.4094 44.5437 9.8703 38.6093L9.86717 38.5718L9.59686 34.4765C8.4034 34.1329 7.33932 33.4416 6.54032 32.4908C5.74133 31.5401 5.24362 30.3728 5.11069 29.138C4.97775 27.9033 5.21561 26.6568 5.79393 25.5578C6.37225 24.4587 7.26481 23.5568 8.3578 22.9671L7.07655 16.3671C6.76405 13.8812 8.01405 11.3952 10.2031 10.3061L11.4531 9.68427C12.2344 9.21865 13.0156 8.59677 13.7969 7.9749L16.6109 5.02177C18.3297 3.46865 20.8312 3.00302 23.0187 4.09052C24.6003 4.55614 26.2825 4.55614 27.864 4.09052C30.2078 3.31396 32.8656 3.93427 34.7422 5.64521L37.0859 7.9749C37.7109 8.75302 38.4922 9.21865 39.4297 9.68427M39.0219 22.0999C39.0871 21.2641 39.0677 20.4239 38.964 19.5921C38.5 18.9983 38.1781 18.2265 38.1781 17.4546V16.5702C37.6867 15.3544 37.0006 14.2266 36.1469 13.2311C34.0687 12.7702 30.4547 12.1718 25.5187 12.1718C20.5031 12.1718 16.8531 12.789 14.7906 13.253C13.9899 14.2121 13.3388 15.2868 12.8594 16.4405V17.4562C12.8594 18.2952 12.6047 19.1343 11.9844 19.7468C11.8881 20.5293 11.8625 21.319 11.9078 22.1062L12.0172 23.7577C12.0367 24.0491 11.9741 24.3402 11.8366 24.5979C11.6991 24.8556 11.492 25.0695 11.239 25.2155L15.0781 36.5937C15.2344 37.3749 16.1719 37.5312 16.6406 37.0624L17.8906 35.9687C18.9844 35.0311 20.2344 34.7187 21.4844 34.7187H24.2453C23.9977 34.7212 23.753 34.6653 23.5312 34.5552C23.3094 34.4452 23.1167 34.2843 22.9689 34.0857C22.8211 33.887 22.7224 33.6562 22.6808 33.4121C22.6393 33.168 22.656 32.9175 22.7297 32.6811L24.2765 27.728C24.625 26.6327 26.1719 26.6327 26.5047 27.728L28.0515 32.6811C28.1238 32.9175 28.1395 33.1675 28.0973 33.411C28.0552 33.6546 27.9563 33.8848 27.8088 34.0831C27.6613 34.2814 27.4693 34.4422 27.2482 34.5526C27.027 34.663 26.7831 34.7199 26.5359 34.7187H29.2969C30.7031 34.7187 31.9531 35.0311 32.8906 35.9687L34.1406 37.0624C34.6094 37.5312 35.5469 37.2187 35.7031 36.5937L39.6609 25.2296C39.4156 25.0811 39.2159 24.8681 39.0836 24.6137C38.9513 24.3593 38.8916 24.0735 38.9109 23.7874L39.0234 22.114L39.0219 22.0999ZM8.20311 28.4687C8.20282 29.2257 8.47733 29.957 8.97565 30.5269C9.47396 31.0968 10.1622 31.4664 10.9125 31.5671L10.6265 26.6999L10.6328 26.9108C10.05 26.9108 9.54217 26.6202 9.20467 26.1765C8.88856 26.4687 8.63638 26.8232 8.46401 27.2177C8.29164 27.6122 8.20281 28.0381 8.20311 28.4687ZM40.2578 26.9062L39.939 31.5562C40.5143 31.4657 41.0529 31.2164 41.494 30.8362C41.9351 30.456 42.2612 29.9602 42.4356 29.4045C42.6099 28.8489 42.6255 28.2556 42.4806 27.6916C42.3357 27.1276 42.0361 26.6152 41.6156 26.2124C41.325 26.6452 40.8625 26.8999 40.2578 26.9062ZM20.7031 38.6249V40.9687C20.7031 42.3749 21.9531 43.6249 23.5156 43.6249C23.8281 43.6249 23.9844 43.3124 23.9844 43.1562V42.9999C23.9844 42.2187 24.6094 41.5937 25.3906 41.5937C26.1719 41.5937 26.7969 42.2187 26.7969 42.9999V43.1562C26.7969 43.4687 27.1094 43.6249 27.2656 43.6249C28.6719 43.6249 30.0781 42.5312 30.0781 40.9687V38.6249C30.0781 37.8437 29.5375 37.2187 28.5156 37.2187H22.2656C21.275 37.2187 20.7031 37.8437 20.7031 38.6249Z" fill="#201911"/>
</g>
</g>
</svg>
