<svg width="51" height="51" viewBox="0 0 51 51" fill="none" xmlns="http://www.w3.org/2000/svg">
<path d="M25.5 26.5625C28.2959 26.5625 30.5625 24.2959 30.5625 21.5C30.5625 18.7041 28.2959 16.4375 25.5 16.4375C22.7041 16.4375 20.4375 18.7041 20.4375 21.5C20.4375 24.2959 22.7041 26.5625 25.5 26.5625Z" stroke="#201911" stroke-width="4.25" stroke-linecap="round" stroke-linejoin="round"/>
<path d="M25.5 8C21.9196 8 18.4858 9.42232 15.9541 11.9541C13.4223 14.4858 12 17.9196 12 21.5C12 24.6927 12.6784 26.7819 14.5312 29.0938L25.5 41.75L36.4688 29.0938C38.3216 26.7819 39 24.6927 39 21.5C39 17.9196 37.5777 14.4858 35.0459 11.9541C32.5142 9.42232 29.0804 8 25.5 8Z" stroke="#201911" stroke-width="4.25" stroke-linecap="round" stroke-linejoin="round"/>
</svg>
